<?xml version="1.0" encoding="UTF-8"?> <svg xmlns="http://www.w3.org/2000/svg" width="241" height="132" viewBox="0 0 241 132" fill="none"> <path fill-rule="evenodd" clip-rule="evenodd" d="M178.943 18.2421L167.058 32.5816C158.785 23.6915 148.394 18.4535 137.389 18.4535C127.802 18.4535 119.775 21.6732 113.317 28.1509C106.85 34.6095 103.616 42.4616 103.616 51.7074C103.616 61.2606 106.982 69.3819 113.676 76.023C120.389 82.6642 128.662 85.9704 138.514 85.9704C144.915 85.9704 150.314 84.6152 154.701 81.8761C159.107 79.1178 162.633 74.8505 165.347 69.0071H137.134L151.723 51.2941L185.868 51.0424L186 55.2232C186 63.8922 184.058 72.342 179.624 80.1077C175.218 87.8733 169.498 93.8033 162.492 97.8879C155.457 101.982 147.231 104 137.786 104C127.688 104 118.659 101.771 110.727 97.3113C102.794 92.8518 96.5254 86.4894 91.9209 78.2143C87.307 69.9681 85 61.0492 85 51.4863C85 38.3866 89.2547 26.988 97.7734 17.2906C107.909 5.76705 121.07 0.000488281 137.257 0.000488281C145.728 0.000488281 153.67 1.59591 161.035 4.77713C167.276 7.4778 172.977 11.6682 178.943 18.2421Z" fill="#B7312C"></path> <path d="M190 99.4337V90.2789H203.247V85.0005H210.949V90.2789L241 90.2789V99.4337L210.949 99.4337V104H203.247V99.4337H190Z" fill="black"></path> <path d="M225.069 42.0398V70.4552C227.569 70.0427 229.559 68.9524 231.029 67.1648C232.51 65.387 233.245 63.1083 233.245 60.3482C233.245 57.048 232.088 54.1996 229.784 51.8325L233.275 44.3774C235.902 46.2338 237.853 48.4635 239.108 51.0467C240.373 53.6397 241 56.7141 241 60.2795C241 65.8094 239.255 70.3079 235.775 73.7849C232.294 77.262 227.931 79.0005 222.696 79.0005C217.324 79.0005 212.873 77.262 209.324 73.8046C205.775 70.3374 204 65.996 204 60.7608C204 55.2113 205.775 50.6931 209.324 47.216C212.873 43.739 217.549 42.0005 223.373 42.0005L225.069 42.0398ZM218.118 50.8797C216.157 51.4592 214.559 52.6182 213.333 54.3371C212.108 56.056 211.49 58.0499 211.49 60.3286C211.49 62.794 212.176 64.9548 213.559 66.821C214.422 67.9899 215.941 69.0703 218.118 70.0623V50.8797V50.8797Z" fill="black"></path> <path d="M190.001 35.6849V26.7886L218.474 26.7886L203.247 13.2472V2.0676L220.87 17.7836L241 0.000488281V11.0516L223.006 26.7886L241 26.7886V35.6849L190.001 35.6849Z" fill="black"></path> <path d="M75.7856 23.9056C70.9889 15.4604 64.8762 9.38251 57.457 5.62371C50.0573 1.88423 38.9092 0 23.6419 0H0V62.9044L13.0835 47.444L19.8689 39.3853V19.0839H26.6349C39.0457 19.0839 47.854 21.8378 53.4598 27.2876C59.6896 33.3654 62.8093 41.9363 62.8093 52.9614C62.8093 60.1312 61.4932 66.1607 58.8901 71.0597C56.2578 75.9587 52.9041 79.4277 48.7899 81.5051C44.6757 83.573 38.256 84.6166 29.121 84.6166H19.8689V65.1848L0 88.6652V104H23.9929C37.6028 104 46.9766 103.159 52.4751 101.468C58.003 99.7677 63.1116 96.695 67.8594 92.2791C72.5781 87.8439 76.2828 82.2685 78.9833 75.5626C81.6644 68.8277 83 61.4743 83 53.4639C82.9903 42.1778 80.5822 32.3315 75.7856 23.9056Z" fill="#B7312C"></path> <path d="M12.9277 47.9243L0 63.254V63.3307L12.9277 47.9243Z" fill="black"></path> <path fill-rule="evenodd" clip-rule="evenodd" d="M201.78 123.121L204.832 121.996C203.628 119.662 201.593 117.38 199.943 116.255C189.458 109.121 176.181 120.158 182.752 132C179.908 125.599 184.008 117.484 190.299 116.296C193.507 115.687 197.15 116.978 199.341 119.363C199.611 119.662 199.87 119.993 200.098 120.344C200.628 121.139 201.375 122.295 201.78 123.121Z" fill="#B7312C"></path> <path fill-rule="evenodd" clip-rule="evenodd" d="M191.766 127.6L206 123C205.346 123.454 194.568 129.965 194.163 130.223C193.084 130.904 192.586 131.379 191.537 131.276C190.499 131.183 189.824 130.378 189.918 129.387C190.022 128.406 190.779 127.941 191.766 127.6Z" fill="#B7312C"></path> <path d="M6 116.446H2.59296V121.118H5.75992V123.554H2.59296L2.59295 132H0L3.29109e-06 114L6 114V116.446Z" fill="black"></path> <path d="M19 132H16V114H19V132Z" fill="black"></path> <path d="M29 114L32.283 114C35.1845 114 36.6302 115.487 36.6302 118.452C36.6302 119.381 36.5 121.229 35.1443 122.346C37 123.229 37 125.92 37 127.058C37 129.229 36.5683 130.343 35.7149 131.142C35.3567 131.467 34.4012 132 32.8753 132C32.9009 132 31.3494 132 32.8753 132H29V114ZM32.1826 121.138C32.9858 121.138 33.558 120.938 33.9094 120.549C34.2608 120.16 34.4315 119.501 34.4315 118.592C34.4315 117.155 33.8291 116.436 32.6344 116.436H31.6404V121.138H32.1826ZM32.5942 129.564C33.3171 129.564 33.8492 129.374 34.1704 128.985C34.5018 128.596 34.6624 127.957 34.6624 127.058C34.6624 125.9 34.3913 125.102 33.8391 124.652C33.6685 124.513 33.4677 124.413 33.2267 124.353C32.9858 124.293 32.6745 124.263 32.283 124.263H31.6404V129.554H32.5942V129.564Z" fill="black"></path> <path d="M49.6366 132H47V114H50.6491C52.1629 114 53.2657 114.4 53.9574 115.209C54.6491 116.018 55 117.286 55 119.014C55 120.143 54.8697 121.032 54.609 121.691C54.3484 122.351 53.8872 122.91 53.2356 123.379L55 132H52.213L50.8596 124.089H49.6266V132H49.6366ZM50.4586 121.631C50.9399 121.631 51.2807 121.581 51.5113 121.492C51.7318 121.402 51.9123 121.202 52.0526 120.912C52.2732 120.433 52.3835 119.803 52.3835 119.034C52.3835 118.265 52.2732 117.636 52.0526 117.156C51.9123 116.867 51.7419 116.677 51.5113 116.577C51.2907 116.487 50.9399 116.437 50.4586 116.437H49.6366V121.631H50.4586Z" fill="black"></path> <path d="M218.307 132H216V114H219.193C220.518 114 221.482 114.4 222.088 115.209C222.693 116.018 223 117.286 223 119.014C223 120.143 222.886 121.032 222.658 121.691C222.43 122.351 222.026 122.91 221.456 123.379L223 132H220.561L219.377 124.089H218.298V132H218.307ZM219.026 121.631C219.447 121.631 219.746 121.581 219.947 121.492C220.14 121.402 220.298 121.202 220.421 120.912C220.614 120.433 220.711 119.803 220.711 119.034C220.711 118.265 220.614 117.636 220.421 117.156C220.298 116.867 220.149 116.677 219.947 116.577C219.754 116.487 219.447 116.437 219.026 116.437H218.307V121.631H219.026Z" fill="black"></path> <path d="M72 116.446H67.593V121.118H70.7676V123.554H67.593V129.564H72V132H65V114H72V116.446Z" fill="black"></path> <path d="M128 116.446H123.593V121.118H126.768V123.554H123.593V129.564H128V132H121V114H128V116.446Z" fill="black"></path> <path d="M108.457 132L104.496 120.626V132H102V114H104.717L108.457 124.964V114H111V132H108.457Z" fill="black"></path> <path d="M143.978 132H140.957L140.968 116.436H138V114L147 114V116.436H143.978L143.967 132H143.978Z" fill="black"></path> <path d="M165.861 132L163.983 120.828L162.097 132H159.727L157 114H159.727L161.09 125L162.81 114H165.158L166.962 125L168.357 114H171L168.242 132H165.861Z" fill="black"></path> <path d="M235.379 114V120.928L238.167 114H240.646L237.931 120.02L241 132H238.476L236.469 123.954L235.379 126.34V132H233V114H235.379Z" fill="black"></path> </svg> 